<?xml version="1.0" encoding="UTF-8"?>
<!DOCTYPE svg PUBLIC "-//W3C//DTD SVG 1.1//EN" "http://www.w3.org/Graphics/SVG/1.1/DTD/svg11.dtd">
<!-- Creator: CorelDRAW 2021 (64-Bit) -->
<svg xmlns="http://www.w3.org/2000/svg" xml:space="preserve" width="73.2872mm" height="57.001mm" version="1.1" style="shape-rendering:geometricPrecision; text-rendering:geometricPrecision; image-rendering:optimizeQuality; fill-rule:evenodd; clip-rule:evenodd"
viewBox="0 0 7179.19 5583.8"
 xmlns:xlink="http://www.w3.org/1999/xlink"
 xmlns:xodm="http://www.corel.com/coreldraw/odm/2003">
 <defs>
  <style type="text/css">
   <![CDATA[
    .fil0 {fill:#B3B3B3;fill-rule:nonzero}
   ]]>
  </style>
 </defs>
 <g id="Layer_x0020_1">
  <metadata id="CorelCorpID_0Corel-Layer"/>
  <path id="address-card-solid.svg" class="fil0" d="M797.7 0c-439.98,0 -797.7,357.71 -797.7,797.69l0 3988.43c0,439.98 357.72,797.69 797.7,797.69l5583.8 0c439.98,0 797.7,-357.71 797.7,-797.69l0 -3988.43c0,-439.98 -357.72,-797.69 -797.7,-797.69l-5583.8 0zm997.1 3190.74l797.69 0c550.91,0 997.11,446.21 997.11,997.11 0,109.68 -89.74,199.42 -199.43,199.42l-2393.06 0c-109.69,0 -199.42,-89.74 -199.42,-199.42 0,-550.91 446.21,-997.11 997.1,-997.11zm-398.84 -1196.53c0.01,-440.48 357.22,-797.69 797.7,-797.69 440.48,0 797.69,357.21 797.69,797.69 0,440.48 -357.21,797.69 -797.69,797.69 -440.48,0 -797.69,-357.21 -797.69,-797.69l-0.01 0zm4786.13 -398.84l0 0c109.69,0 199.42,89.74 199.42,199.42 0,109.69 -89.73,199.43 -199.42,199.43l-1595.37 0c-109.69,0 -199.43,-89.74 -199.43,-199.43 0,-109.68 89.74,-199.42 199.43,-199.42l1595.37 0zm0 797.69l0 0c109.69,0 199.42,89.74 199.42,199.42 0,109.69 -89.73,199.43 -199.42,199.43l-1595.37 0c-109.69,0 -199.43,-89.74 -199.43,-199.43 0,-109.68 89.74,-199.42 199.43,-199.42l1595.37 0zm0 797.69l0 0c109.69,0 199.42,89.74 199.42,199.43 0,109.68 -89.73,199.42 -199.42,199.42l-1595.37 0c-109.69,0 -199.43,-89.74 -199.43,-199.42 0,-109.69 89.74,-199.43 199.43,-199.43l1595.37 0z"/>
 </g>
</svg>
