<?xml version="1.0" encoding="UTF-8"?>
<!DOCTYPE svg PUBLIC "-//W3C//DTD SVG 1.1//EN" "http://www.w3.org/Graphics/SVG/1.1/DTD/svg11.dtd">
<!-- Creator: CorelDRAW 2021 (64-Bit) -->
<svg xmlns="http://www.w3.org/2000/svg" xml:space="preserve" width="29.8027mm" height="27.8189mm" version="1.1" style="shape-rendering:geometricPrecision; text-rendering:geometricPrecision; image-rendering:optimizeQuality; fill-rule:evenodd; clip-rule:evenodd"
viewBox="0 0 2048.93 1912.55"
 xmlns:xlink="http://www.w3.org/1999/xlink"
 xmlns:xodm="http://www.corel.com/coreldraw/odm/2003">
 <defs>
  <style type="text/css">
   <![CDATA[
    .str0 {stroke:#EEEEEE;stroke-width:29.1;stroke-linecap:round;stroke-linejoin:round;stroke-miterlimit:22.9256}
    .fil10 {fill:none}
    .fil3 {fill:#FFE31E;fill-rule:nonzero}
    .fil6 {fill:#FDE6D9;fill-rule:nonzero}
    .fil4 {fill:#F5A3BA;fill-rule:nonzero}
    .fil12 {fill:#C48ABC;fill-rule:nonzero}
    .fil8 {fill:#ABD9F4;fill-rule:nonzero}
    .fil2 {fill:#36383B;fill-rule:nonzero}
    .fil9 {fill:#593E92;fill-rule:nonzero}
    .fil0 {fill:#82ACFF;fill-rule:nonzero}
    .fil13 {fill:#82ACFF;fill-rule:nonzero}
    .fil11 {fill:#EEEEEE;fill-rule:nonzero}
    .fil7 {fill:#FCFCFC;fill-rule:nonzero}
    .fil1 {fill:#FF597B;fill-rule:nonzero}
    .fil5 {fill:#FF597B;fill-rule:nonzero}
   ]]>
  </style>
   <clipPath id="id0">
    <path d="M36.38 105.18l1976.18 0c12,0 21.82,9.82 21.82,21.82l0 1749.17c0,12 -9.82,21.82 -21.82,21.82l-1976.18 0c-12,0 -21.82,-9.82 -21.82,-21.82l0 -1749.17c0,-12 9.82,-21.82 21.82,-21.82z"/>
   </clipPath>
 </defs>
 <g id="Layer_x0020_1">
  <metadata id="CorelCorpID_0Corel-Layer"/>
  <g>
  </g>
  <g style="clip-path:url(#id0)">
   <g>
    <path class="fil0" d="M2531.1 913.56l0 1476.3 -2996.77 0 0 -1476.3c0,-559.01 306.18,-1046.41 760.08,-1303.91 156.42,-88.82 330.67,-150.37 515.93,-177.97 72.54,-10.7 146.8,-16.28 222.3,-16.28 243.23,0 472.82,57.83 675.9,160.76 66.35,33.48 129.76,71.77 189.9,114.41 51.63,36.59 100.77,76.42 147.28,119.05 15.81,14.57 31.32,29.3 46.51,44.49 2.17,2.17 4.34,4.34 6.51,6.67 29.92,30.22 58.44,61.7 85.73,94.41 90.53,108.51 165.87,230.21 222.76,361.51 13.8,31.32 26.2,62.94 37.52,95.19 55.97,156.88 86.35,325.7 86.35,501.65z"/>
    <path class="fil1" d="M241.42 311.12c-53.28,-12.78 -99.47,-40.48 -134.67,-77.38 -1.66,-1.87 -3.38,-3.62 -5.05,-5.49 -1.67,-1.87 -3.34,-3.75 -4.83,-5.72 -8.8,-10.28 -16.85,-21.07 -23.77,-32.57 -1.35,-1.91 -2.67,-3.98 -3.83,-6 -1.31,-2.07 -2.43,-4.23 -3.55,-6.38 -6.62,-11.55 -12.19,-23.53 -16.96,-36.13 -0.93,-2.25 -1.75,-4.46 -2.52,-6.81 -0.82,-2.21 -1.59,-4.54 -2.22,-6.85 -11,-33.98 -15.53,-70.41 -12.19,-107.42 175.92,-37.94 360.55,-44.58 545.54,-15.5 5,33.45 3.73,68.23 -4.67,103.19 -35.21,147.45 -183.69,238.36 -331.28,203.07z"/>
    <polygon class="fil2" points="-60.96,499.34 -71.03,489.11 217.98,204.97 228.04,215.2 "/>
    <polygon class="fil2" points="-19.96,535.09 -30.02,524.86 258.98,240.72 269.04,250.95 "/>
    <polygon class="fil2" points="21.03,570.84 10.97,560.61 299.98,276.47 310.05,286.7 "/>
    <path class="fil1" d="M-2968.7 133.64c-8.7,3.38 -18.5,-0.93 -21.88,-9.64 -3.38,-8.7 0.93,-18.48 9.63,-21.88 8.71,-3.38 18.5,0.95 21.88,9.65 3.39,8.7 -0.93,18.49 -9.63,21.87z"/>
    <path class="fil1" d="M-2948.51 185.62c-8.71,3.36 -18.51,-0.94 -21.88,-9.64 -3.38,-8.72 0.93,-18.49 9.63,-21.88 8.71,-3.38 18.5,0.93 21.88,9.63 3.38,8.7 -0.93,18.49 -9.63,21.88z"/>
    <path class="fil1" d="M-2930.03 233.15c-8.7,3.38 -18.49,-0.93 -21.88,-9.63 -3.38,-8.71 0.93,-18.51 9.63,-21.87 8.71,-3.38 18.5,0.93 21.88,9.62 3.38,8.7 -0.93,18.49 -9.63,21.88z"/>
    <path class="fil1" d="M-3016.25 152.12c-8.7,3.38 -18.49,-0.93 -21.88,-9.64 -3.38,-8.7 0.93,-18.5 9.63,-21.88 8.7,-3.38 18.49,0.93 21.88,9.62 3.38,8.72 -0.93,18.51 -9.63,21.89z"/>
    <path class="fil1" d="M-2996.05 204.08c-8.7,3.38 -18.5,-0.92 -21.88,-9.64 -3.38,-8.7 0.93,-18.49 9.63,-21.88 8.7,-3.38 18.5,0.93 21.87,9.65 3.39,8.7 -0.93,18.49 -9.62,21.87z"/>
    <path class="fil1" d="M-2977.59 251.62c-8.69,3.38 -18.49,-0.93 -21.87,-9.64 -3.39,-8.7 0.93,-18.49 9.63,-21.88 8.7,-3.38 18.49,0.93 21.88,9.65 3.37,8.7 -0.93,18.49 -9.65,21.87z"/>
    <path class="fil1" d="M-3063.79 170.58c-8.7,3.39 -18.49,-0.93 -21.88,-9.62 -3.38,-8.7 0.93,-18.5 9.64,-21.88 8.7,-3.4 18.49,0.93 21.87,9.62 3.39,8.7 -0.92,18.49 -9.63,21.88z"/>
    <path class="fil1" d="M-3043.6 222.54c-8.7,3.4 -18.5,-0.93 -21.88,-9.62 -3.38,-8.7 0.94,-18.49 9.65,-21.87 8.7,-3.39 18.49,0.93 21.87,9.62 3.39,8.72 -0.93,18.51 -9.63,21.88z"/>
    <path class="fil1" d="M-3025.13 270.1c-8.69,3.38 -18.49,-0.94 -21.87,-9.64 -3.39,-8.7 0.93,-18.49 9.63,-21.88 8.7,-3.38 18.49,0.93 21.88,9.62 3.38,8.72 -0.94,18.51 -9.64,21.89z"/>
    <path class="fil1" d="M-3111.33 189.06c-8.7,3.38 -18.49,-0.93 -21.88,-9.63 -3.38,-8.71 0.93,-18.51 9.63,-21.88 8.7,-3.38 18.49,0.94 21.88,9.62 3.38,8.71 -0.93,18.51 -9.63,21.89z"/>
    <path class="fil1" d="M-3091.14 241.02c-8.7,3.4 -18.5,-0.93 -21.88,-9.62 -3.38,-8.7 0.94,-18.51 9.64,-21.89 8.7,-3.38 18.49,0.93 21.88,9.64 3.38,8.7 -0.93,18.5 -9.63,21.88z"/>
    <path class="fil1" d="M-3072.67 288.57c-8.71,3.38 -18.49,-0.93 -21.88,-9.65 -3.39,-8.68 0.93,-18.48 9.63,-21.86 8.7,-3.4 18.49,0.93 21.88,9.62 3.38,8.7 -0.93,18.5 -9.63,21.88z"/>
    <path class="fil3" d="M-937.57 600.72c-4.48,-8.2 -1.47,-18.46 6.71,-22.94 8.19,-4.48 18.48,-1.46 22.94,6.73 4.48,8.2 1.47,18.46 -6.73,22.94 -8.18,4.46 -18.46,1.47 -22.92,-6.73z"/>
    <path class="fil3" d="M-986.5 627.45c-4.48,-8.19 -1.47,-18.45 6.73,-22.93 8.18,-4.48 18.46,-1.46 22.94,6.71 4.46,8.2 1.46,18.48 -6.73,22.95 -8.2,4.49 -18.46,1.47 -22.94,-6.73z"/>
    <path class="fil3" d="M-1031.26 651.91c-4.48,-8.18 -1.47,-18.45 6.72,-22.93 8.19,-4.48 18.46,-1.47 22.94,6.73 4.48,8.18 1.47,18.46 -6.73,22.94 -8.19,4.46 -18.47,1.46 -22.93,-6.74z"/>
    <path class="fil3" d="M-962.04 555.96c-4.48,-8.19 -1.47,-18.46 6.73,-22.94 8.19,-4.48 18.46,-1.47 22.93,6.73 4.48,8.19 1.47,18.47 -6.71,22.94 -8.2,4.46 -18.47,1.46 -22.95,-6.73z"/>
    <path class="fil3" d="M-1010.96 582.69c-4.48,-8.19 -1.47,-18.45 6.72,-22.93 8.19,-4.48 18.47,-1.47 22.93,6.71 4.49,8.2 1.47,18.48 -6.73,22.94 -8.19,4.48 -18.47,1.48 -22.93,-6.72z"/>
    <path class="fil3" d="M-1055.72 607.15c-4.48,-8.19 -1.48,-18.47 6.73,-22.93 8.18,-4.48 18.46,-1.47 22.92,6.72 4.48,8.19 1.48,18.46 -6.72,22.94 -8.19,4.48 -18.47,1.47 -22.93,-6.73z"/>
    <path class="fil3" d="M-986.5 511.19c-4.48,-8.18 -1.47,-18.46 6.73,-22.93 8.18,-4.48 18.46,-1.47 22.94,6.72 4.46,8.2 1.46,18.46 -6.73,22.94 -8.2,4.48 -18.46,1.47 -22.94,-6.73z"/>
    <path class="fil3" d="M-1035.43 537.93c-4.48,-8.18 -1.45,-18.46 6.73,-22.94 8.19,-4.48 18.47,-1.46 22.94,6.74 4.47,8.18 1.46,18.45 -6.72,22.92 -8.2,4.48 -18.47,1.48 -22.95,-6.72z"/>
    <path class="fil3" d="M-1080.18 562.4c-4.48,-8.19 -1.48,-18.47 6.72,-22.93 8.19,-4.48 18.47,-1.47 22.95,6.72 4.46,8.19 1.45,18.46 -6.73,22.94 -8.2,4.48 -18.47,1.46 -22.94,-6.73z"/>
    <path class="fil3" d="M-1010.96 466.43c-4.48,-8.19 -1.47,-18.47 6.72,-22.93 8.19,-4.48 18.47,-1.47 22.93,6.72 4.49,8.19 1.47,18.47 -6.72,22.94 -8.2,4.48 -18.48,1.47 -22.94,-6.73z"/>
    <path class="fil3" d="M-1059.88 493.18c-4.48,-8.2 -1.48,-18.46 6.72,-22.94 8.2,-4.48 18.46,-1.46 22.94,6.72 4.48,8.2 1.46,18.47 -6.72,22.95 -8.21,4.46 -18.47,1.47 -22.94,-6.73z"/>
    <path class="fil3" d="M-1104.64 517.64c-4.48,-8.18 -1.48,-18.46 6.72,-22.94 8.19,-4.48 18.45,-1.46 22.93,6.72 4.48,8.19 1.48,18.47 -6.73,22.95 -8.18,4.48 -18.46,1.46 -22.92,-6.73z"/>
    <path class="fil4" d="M-942.73 368.8l-258.14 94.98 -29.4 -98.86 249.93 -91.4c13.78,31.28 26.26,62.99 37.61,95.28z"/>
    <polygon class="fil1" points="527.77,1124.02 223.6,1235.93 223.6,1126.89 502.09,1025.17 "/>
    <path class="fil5" d="M1920.63 1877.62c-3.07,0 -5.57,-2.47 -5.57,-5.55l0 -201.49c0,-3.07 2.5,-5.55 5.57,-5.55 3.07,0 5.55,2.47 5.55,5.55l0 201.49c0,3.07 -2.48,5.55 -5.55,5.55z"/>
    <path class="fil5" d="M1849.39 1848.12c-1.42,0 -2.85,-0.54 -3.93,-1.63 -2.17,-2.17 -2.17,-5.69 0,-7.86l142.48 -142.46c2.15,-2.17 5.67,-2.17 7.84,0 2.18,2.17 2.18,5.69 0,7.86l-142.47 142.46c-1.09,1.09 -2.51,1.63 -3.93,1.63z"/>
    <path class="fil5" d="M2021.37 1776.89l-201.47 0c-3.07,0 -5.56,-2.48 -5.56,-5.55 0,-3.07 2.5,-5.57 5.56,-5.57l201.47 0c3.08,0 5.56,2.5 5.56,5.57 0,3.07 -2.48,5.55 -5.56,5.55z"/>
    <path class="fil5" d="M1991.87 1848.12c-1.43,0 -2.85,-0.54 -3.92,-1.63l-142.48 -142.46c-2.17,-2.17 -2.17,-5.69 0,-7.86 2.17,-2.17 5.69,-2.17 7.86,0l142.47 142.46c2.18,2.17 2.18,5.69 0,7.86 -1.07,1.09 -2.5,1.63 -3.93,1.63z"/>
    <path class="fil6" d="M-890.75 1278.33c-3.07,0 -5.57,-2.5 -5.57,-5.57l0 -201.47c0,-3.08 2.5,-5.56 5.57,-5.56 3.07,0 5.55,2.48 5.55,5.56l0 201.47c0,3.07 -2.48,5.57 -5.55,5.57z"/>
    <path class="fil6" d="M-856.51 1129.82l0 15.78 -20.8 20.8 -5.59 5.6 -2.3 2.29 -3.31 3.3 -2.29 2.3 -67.29 67.3c-1,1.15 -2.45,1.58 -3.88,1.58 -1.44,0 -2.88,-0.43 -4.03,-1.58 -2.14,-2.16 -2.14,-5.74 0,-7.89l109.48 -109.48z"/>
    <path class="fil6" d="M-856.51 1166.4l0 11.19 -135.01 0c-3.02,0 -5.6,-2.43 -5.6,-5.59 0,-3.01 2.58,-5.6 5.6,-5.6l135.01 0z"/>
    <path class="fil6" d="M-856.51 1198.4l0 15.79 -28.69 -28.71 -5.6 -5.6 -5.46 -5.44 -2.43 -2.45 -5.6 -5.6 -61.7 -61.7c-2.14,-2.14 -2.14,-5.74 0,-7.89 2.3,-2.14 5.74,-2.14 7.91,0l67.29 67.3 2.29 2.29 5.6 5.6 5.59 5.59 20.8 20.81z"/>
    <path class="fil6" d="M1858.85 2281.06l-108.76 108.77 -15.78 0 41.47 -41.47 2.29 -2.32 3.31 -3.29 2.3 -2.29 67.29 -67.3c2.15,-2.15 5.73,-2.15 7.89,0 2.16,2.15 2.16,5.73 0,7.89z"/>
    <path class="fil6" d="M1884.42 2353.92l-201.49 0c-3.07,0 -5.55,-2.5 -5.55,-5.56 0,-3.06 2.48,-5.55 5.55,-5.55l201.49 0c3.07,0 5.55,2.5 5.55,5.55 0,3.07 -2.48,5.56 -5.55,5.56z"/>
    <path class="fil6" d="M1833.03 2389.83l-15.78 0 -27.99 -27.99 -5.59 -5.6 -2.3 -2.3 -3.31 -3.3 -69.59 -69.59c-2.14,-2.16 -2.14,-5.74 0,-7.89 2.15,-2.15 5.73,-2.15 7.91,0l69.57 69.59 3.3 3.29 2.3 2.32 41.47 41.47z"/>
    <path class="fil7" d="M203.47 905.55c-3.07,0 -5.55,-2.47 -5.55,-5.55l0 -201.49c0,-3.07 2.49,-5.55 5.55,-5.55 3.07,0 5.56,2.47 5.56,5.55l0 201.49c0,3.07 -2.5,5.55 -5.56,5.55z"/>
    <path class="fil7" d="M132.23 876.05c-1.42,0 -2.85,-0.54 -3.92,-1.62 -2.18,-2.17 -2.18,-5.69 0,-7.86l142.46 -142.46c2.18,-2.17 5.7,-2.17 7.87,0 2.17,2.19 2.17,5.69 0,7.86l-142.48 142.47c-1.09,1.09 -2.51,1.62 -3.93,1.62z"/>
    <path class="fil7" d="M304.2 804.81l-201.47 0c-3.07,0 -5.56,-2.48 -5.56,-5.55 0,-3.07 2.49,-5.55 5.56,-5.55l201.47 0c3.07,0 5.57,2.48 5.57,5.55 0,3.07 -2.5,5.55 -5.57,5.55z"/>
    <path class="fil7" d="M274.7 876.05c-1.42,0 -2.84,-0.54 -3.93,-1.62l-142.46 -142.47c-2.18,-2.17 -2.18,-5.67 0,-7.86 2.16,-2.17 5.68,-2.17 7.85,0l142.48 142.46c2.17,2.17 2.17,5.69 0,7.86 -1.09,1.09 -2.51,1.62 -3.94,1.62z"/>
    <polygon class="fil8" points="-1101.22,1237.13 -1166.79,1238.3 -1276.69,2.91 -1189.16,2.64 "/>
    <path class="fil2" d="M-1137.23 322.73c0,16.32 -13.24,29.58 -29.58,29.58 -16.34,0 -29.58,-13.25 -29.58,-29.58 0,-16.34 13.24,-29.58 29.58,-29.58 16.33,0 29.58,13.24 29.58,29.58z"/>
    <path class="fil2" d="M-1016.86 322.73c0,16.32 -13.25,29.58 -29.58,29.58 -16.34,0 -29.58,-13.25 -29.58,-29.58 0,-16.34 13.24,-29.58 29.58,-29.58 16.32,0 29.58,13.24 29.58,29.58z"/>
    <path class="fil2" d="M-896.49 322.73c0,16.32 -13.25,29.58 -29.58,29.58 -16.34,0 -29.58,-13.25 -29.58,-29.58 0,-16.34 13.23,-29.58 29.58,-29.58 16.33,0 29.58,13.24 29.58,29.58z"/>
    <polygon class="fil9" points="51.8,1510.91 355.88,1390.42 333.2,1333.19 29.11,1453.66 "/>
    <polygon class="fil6" points="345.32,1395.12 292.26,1558.93 471.65,1686.52 305.3,1752.44 187.82,1455.97 "/>
    <polygon class="fil6" points="63.61,1506.74 214.47,1589.77 171.15,1805.59 337.51,1739.68 220.03,1443.21 "/>
    <polygon class="fil9" points="184.15,1844.94 488.22,1724.46 465.55,1667.21 161.47,1787.7 "/>
    <path class="fil1" d="M278.79 1472.71l-20.71 104.42 -87.7 -59.42c0,0 108.76,-44.12 108.4,-45z"/>
    <path class="fil1" d="M252.48 1750.57l26.07 -120 90.43 71.18c0,0 -116.92,47.75 -116.5,48.82z"/>
    <path class="fil2" d="M51.8 1513.36c0.31,0 0.6,-0.06 0.89,-0.17l304.09 -120.49c1.25,-0.49 1.87,-1.92 1.37,-3.18 -0.52,-1.25 -1.95,-1.84 -3.18,-1.37l-304.07 120.48c-1.26,0.49 -1.88,1.92 -1.38,3.18 0.38,0.96 1.3,1.55 2.28,1.55z"/>
    <path class="fil2" d="M160.95 1788.81c0.29,0 0.6,-0.06 0.89,-0.17l304.07 -120.48c1.26,-0.49 1.89,-1.92 1.37,-3.18 -0.51,-1.26 -1.93,-1.83 -3.18,-1.38l-304.06 120.48c-1.27,0.49 -1.89,1.92 -1.38,3.18 0.38,0.96 1.3,1.55 2.28,1.55z"/>
   </g>
  </g>
  <path class="fil10 str0" d="M36.38 105.18l1976.18 0c12,0 21.82,9.82 21.82,21.82l0 1749.17c0,12 -9.82,21.82 -21.82,21.82l-1976.18 0c-12,0 -21.82,-9.82 -21.82,-21.82l0 -1749.17c0,-12 9.82,-21.82 21.82,-21.82z"/>
  <path class="fil11" d="M595.68 1013.79l-0.2 6.75 0 0.1 -3.87 189.97 -0.2 6.95 -5.96 292.15 970.99 47.37 9.14 0.4 210.72 -80.83 6.85 -2.68 0.1 0 156.01 -59.98 17.47 -6.65 0 -785.39 -173.48 -136.24 -0.1 -0.1 -1.68 -1.29 0 -350.45 -137.64 -118.86 -1112.3 -15c-19.17,19.37 -37.43,39.52 -54.92,60.48l-21.64 275.76 -5.36 68.22 -47.67 605.05 0 0.1 -0.3 3.47 194.04 0 0 0.7z"/>
  <polygon class="fil12" points="1556.39,1557.06 1556.39,1557.52 1565.58,1557.52 1776.33,1476.63 1783.22,1473.97 1956.74,1407.34 1956.74,621.98 1783.22,485.68 1781.47,484.31 1781.47,133.86 1643.8,15.01 1567.23,1035.02 1566.78,1041.27 1565.58,1056.89 1562.37,1231.79 1562.27,1238.68 "/>
  <polygon class="fil2" points="508.08,918.38 550.09,919.13 1456.12,934.83 1517.14,129.99 620.48,127.79 564.42,127.61 "/>
  <polygon class="fil13" points="508.08,918.38 550.09,919.13 620.48,127.79 564.42,127.61 "/>
  <path class="fil2" d="M1565.58 1041.55c1.87,0 3.41,-1.51 3.44,-3.38 0.04,-1.9 -1.47,-3.48 -3.37,-3.52l-1163.93 -25.05c-2.19,-0.03 -3.47,1.47 -3.52,3.37 -0.04,1.91 1.46,3.48 3.37,3.52l1163.94 25.06c0.02,0 0.05,0 0.07,0z"/>
  <path class="fil2" d="M1779.73 1475.31c1.9,0 3.44,-1.53 3.44,-3.4l0 -987.63c0,-1.89 -1.54,-3.42 -3.44,-3.42 -1.9,0 -3.44,1.53 -3.44,3.42l0 987.63c0,1.87 1.54,3.4 3.44,3.4z"/>
  <path class="fil2" d="M1842.22 1047.52c0,1.84 1.47,3.4 3.4,3.4l111.11 0 0 -6.9 -111.11 0c-1.93,0 -3.4,1.57 -3.4,3.5z"/>
  <path class="fil2" d="M1842.22 1073.26c0,1.92 1.47,3.48 3.4,3.48l111.11 0 0 -6.89 -111.11 0c-1.93,0 -3.4,1.57 -3.4,3.41z"/>
  <path class="fil2" d="M1842.22 1099.07c0,1.94 1.47,3.49 3.4,3.49l111.11 0 0 -6.89 -111.11 0c-1.93,0 -3.4,1.56 -3.4,3.4z"/>
  <path class="fil2" d="M1842.22 1124.9c0,1.94 1.47,3.49 3.4,3.49l111.11 0 0 -6.89 -111.11 0c-1.93,0 -3.4,1.56 -3.4,3.4z"/>
  <path class="fil2" d="M1842.22 1150.73c0,1.92 1.47,3.49 3.4,3.49l111.11 0 0 -6.88 -111.11 0c-1.93,0 -3.4,1.47 -3.4,3.4z"/>
  <path class="fil2" d="M1842.22 1176.56c0,1.92 1.47,3.4 3.4,3.4l111.11 0 0 -6.9 -111.11 0c-1.93,0 -3.4,1.56 -3.4,3.5z"/>
  <path class="fil2" d="M1842.22 1202.39c0,1.84 1.47,3.4 3.4,3.4l111.11 0 0 -6.89 -111.11 0c-1.93,0 -3.4,1.55 -3.4,3.49z"/>
  <path class="fil2" d="M1842.22 1228.2c0,1.84 1.47,3.4 3.4,3.4l111.11 0 0 -6.88 -111.11 0c-1.93,0 -3.4,1.56 -3.4,3.49z"/>
  <path class="fil2" d="M1564.04 1238.65c1.88,0 3.41,-1.49 3.45,-3.37 0.04,-1.9 -1.47,-3.49 -3.38,-3.51l-973.84 -21.12c-2.1,0.05 -3.47,1.46 -3.52,3.36 -0.03,1.91 1.46,3.49 3.38,3.53l973.84 21.11c0.03,0 0.05,0 0.08,0z"/>
  <path class="fil2" d="M671.56 1119.45c0,26.78 21.7,48.49 48.49,48.49 26.79,0 48.5,-21.7 48.5,-48.49 0,-26.78 -21.7,-48.5 -48.5,-48.5 -26.78,0 -48.49,21.71 -48.49,48.5z"/>
  <path class="fil2" d="M1394.57 1143.4c-0.81,17.48 12.69,32.31 30.17,33.12 17.48,0.82 32.31,-12.69 33.12,-30.17 0.82,-17.48 -12.69,-32.31 -30.17,-33.12 -17.48,-0.81 -32.31,12.69 -33.12,30.17z"/>
  <path class="fil2" d="M1269.56 1137.57c-0.82,17.48 12.69,32.31 30.17,33.12 17.48,0.82 32.31,-12.69 33.12,-30.17 0.82,-17.48 -12.7,-32.3 -30.17,-33.12 -17.48,-0.81 -32.31,12.69 -33.12,30.17z"/>
  <path class="fil2" d="M1144.54 1131.74c-0.81,17.48 12.69,32.31 30.17,33.12 17.48,0.82 32.31,-12.69 33.12,-30.17 0.82,-17.48 -12.69,-32.3 -30.17,-33.12 -17.46,-0.81 -32.31,12.69 -33.12,30.17z"/>
  <path class="fil2" d="M958.93 1457.18l543.78 21.65 0 -194.93 -543.78 -12.31 0 185.6zm-5.86 -191.55c0.7,-0.69 1.69,-0.99 2.49,-0.99l550.63 12.51c1.99,0.1 3.38,1.48 3.38,3.47l0 201.78c0,0.89 -0.3,1.89 -1.09,2.49 -0.59,0.59 -1.39,0.89 -2.38,0.89l-0.1 0 -550.63 -21.84c-1.89,-0.1 -3.38,-1.59 -3.38,-3.48l0 -192.35c0,-0.89 0.49,-1.89 1.09,-2.48z"/>
  <path class="fil2" d="M1473.31 1374.76c1.86,0 3.4,-1.49 3.43,-3.38 0.04,-1.9 -1.46,-3.48 -3.38,-3.52l-480.27 -9.38c-1.92,-0.08 -3.48,1.48 -3.51,3.38 -0.03,1.9 1.48,3.47 3.38,3.51l480.27 9.38c0.01,0 0.03,0 0.07,0z"/>
  <path class="fil2" d="M1145.62 1383.5l154.12 3.87 5.95 -15.89 1.29 -3.38 -1.09 -3.48 -4.17 -14.2 -158.19 -4.47 -3.87 15.3 0 0.1 -0.69 2.78 1.39 4.17 5.26 15.19zm-13.01 -22.24l0 -0.1 4.97 -19.66c0.39,-1.49 1.88,-2.58 3.38,-2.58l163.55 4.77c1.39,0 2.68,0.99 3.18,2.48l5.56 18.57 0 0.1 0.69 2.38c0.2,0.69 0.2,1.49 -0.1,2.19l-0.8 2.28 -7.84 20.36c-0.49,1.39 -1.79,2.28 -3.18,2.28 0,0 0,0 -0.1,0l-158.78 -3.87c-1.4,-0.1 -2.69,-0.99 -3.18,-2.39l-6.85 -19.96 -0.99 -2.68c-0.2,-0.59 -0.2,-1.39 -0.1,-1.99l0.59 -2.18z"/>
  <path class="fil1" d="M1015 1178.22l-43.27 -34.26c-10.47,-8.3 -12.56,-23.36 -4.74,-34.2l0 0c7.52,-10.41 21.72,-13.41 32.81,-6.94l15.43 9 15.43 -9c11.1,-6.48 25.29,-3.47 32.81,6.94l0 0c7.82,10.83 5.73,25.9 -4.74,34.2l-43.27 34.26c-0.01,0.12 -0.03,0.36 -0.03,0.36l-0.21 -0.16 -0.21 0.16c0,0 -0.02,-0.23 -0.03,-0.36z"/>
  <path class="fil11" d="M733.49 522.56l26.81 -79.55 11.4 0 26.8 79.55 -10.67 0 -13.83 -44.51c-1.37,-4.44 -2.73,-8.87 -4.06,-13.28 -1.33,-4.41 -2.61,-8.91 -3.82,-13.52l-0.48 0c-1.29,4.61 -2.59,9.12 -3.88,13.52 -1.29,4.41 -2.63,8.83 -4,13.28l-13.94 44.51 -10.31 0zm14.07 -24.25l0 -8.13 36.5 0 0 8.13 -36.5 0z"/>
  <path id="_1" class="fil11" d="M844.33 524.02c-6.15,0 -11.66,-1.22 -16.55,-3.64 -4.89,-2.42 -8.73,-5.94 -11.52,-10.55 -2.79,-4.61 -4.19,-10.15 -4.19,-16.62 0,-6.63 1.5,-12.24 4.49,-16.85 2.99,-4.61 6.97,-8.13 11.94,-10.55 4.97,-2.43 10.45,-3.64 16.43,-3.64 4.85,0 9.03,0.85 12.55,2.54 3.51,1.7 6.49,3.72 8.91,6.06l-4.97 6.43c-2.43,-2.1 -4.93,-3.76 -7.51,-4.97 -2.59,-1.22 -5.46,-1.82 -8.61,-1.82 -4.52,0 -8.52,0.95 -12,2.85 -3.48,1.9 -6.17,4.56 -8.06,8 -1.9,3.44 -2.85,7.42 -2.85,11.94 0,4.45 0.93,8.37 2.79,11.76 1.86,3.4 4.51,6.04 7.94,7.95 3.44,1.9 7.42,2.85 11.95,2.85 3.64,0 6.97,-0.73 10,-2.18 3.03,-1.46 5.76,-3.2 8.19,-5.22l4.48 6.43c-3.23,2.91 -6.85,5.18 -10.85,6.79 -4,1.62 -8.19,2.43 -12.55,2.43z"/>
  <path id="_2" class="fil11" d="M904.96 524.02c-3.64,0 -6.99,-0.67 -10.06,-2 -3.07,-1.33 -5.49,-3.26 -7.27,-5.76 -1.78,-2.51 -2.67,-5.5 -2.67,-8.98 0,-6.63 3.31,-11.66 9.94,-15.1 6.63,-3.43 17.54,-5.75 32.75,-6.97 -0.08,-2.67 -0.63,-5.14 -1.64,-7.4 -1.01,-2.26 -2.65,-4.06 -4.92,-5.4 -2.26,-1.33 -5.29,-2 -9.1,-2 -2.5,0 -4.99,0.34 -7.46,1.03 -2.46,0.69 -4.81,1.57 -7.03,2.67 -2.22,1.09 -4.26,2.21 -6.12,3.33l-3.88 -6.79c1.94,-1.3 4.3,-2.61 7.09,-3.95 2.79,-1.33 5.8,-2.43 9.03,-3.27 3.24,-0.85 6.59,-1.27 10.06,-1.27 5.42,0 9.89,1.01 13.4,3.03 3.52,2.02 6.15,4.83 7.89,8.43 1.74,3.6 2.61,7.86 2.61,12.79l0 36.13 -8.13 0 -0.85 -8 -0.36 0c-3.23,2.58 -6.87,4.81 -10.92,6.67 -4.04,1.86 -8.16,2.79 -12.37,2.79zm2.67 -8.01c3.4,0 6.75,-0.76 10.06,-2.3 3.31,-1.53 6.63,-3.68 9.95,-6.43l0 -15.52c-8.41,0.73 -15.02,1.74 -19.83,3.03 -4.81,1.29 -8.21,2.93 -10.19,4.91 -1.98,1.98 -2.97,4.26 -2.97,6.85 0,2.18 0.6,3.98 1.81,5.4 1.22,1.41 2.81,2.44 4.79,3.09 1.98,0.65 4.1,0.97 6.37,0.97z"/>
  <path id="_3" class="fil11" d="M980.75 524.02c-7.68,0 -13.87,-2.69 -18.56,-8.06 -4.69,-5.38 -7.03,-12.96 -7.03,-22.74 0,-6.39 1.28,-11.9 3.82,-16.55 2.54,-4.65 5.86,-8.23 9.94,-10.73 4.08,-2.51 8.43,-3.76 13.04,-3.76 3.47,0 6.65,0.67 9.51,2 2.87,1.33 5.56,3.21 8.06,5.64l0.36 0 -0.48 -10.91 0 -22.68 9.94 0 0 86.34 -8.24 0 -0.85 -7.76 -0.36 0c-2.34,2.51 -5.19,4.67 -8.55,6.49 -3.35,1.81 -6.9,2.73 -10.61,2.73zm2.06 -8.37c2.91,0 5.74,-0.75 8.49,-2.25 2.75,-1.49 5.46,-3.7 8.13,-6.61l0 -29.35c-2.67,-2.5 -5.28,-4.28 -7.82,-5.33 -2.55,-1.05 -5.11,-1.57 -7.7,-1.57 -3.4,0 -6.49,0.95 -9.28,2.85 -2.78,1.9 -5.01,4.53 -6.67,7.89 -1.66,3.35 -2.48,7.29 -2.48,11.82 0,7.03 1.53,12.55 4.61,16.55 3.07,4.01 7.31,6.01 12.73,6.01z"/>
  <path id="_4" class="fil11" d="M1060.67 524.02c-5.91,0 -11.26,-1.22 -16.07,-3.64 -4.81,-2.42 -8.63,-5.96 -11.46,-10.61 -2.83,-4.65 -4.25,-10.24 -4.25,-16.8 0,-6.39 1.42,-11.89 4.25,-16.49 2.83,-4.61 6.52,-8.15 11.1,-10.61 4.56,-2.47 9.48,-3.7 14.73,-3.7 5.66,0 10.49,1.15 14.49,3.45 4,2.31 7.07,5.52 9.21,9.65 2.14,4.12 3.22,8.97 3.22,14.55 0,1.13 -0.04,2.23 -0.12,3.28 -0.08,1.05 -0.2,1.98 -0.36,2.78l-49.84 0 0 -7.75 43.9 0 -2.55 2.78c0,-6.95 -1.59,-12.17 -4.78,-15.64 -3.2,-3.48 -7.5,-5.22 -12.92,-5.22 -3.64,0 -7.01,0.89 -10.13,2.67 -3.11,1.78 -5.6,4.37 -7.45,7.76 -1.86,3.4 -2.79,7.56 -2.79,12.49 0,5.09 1.01,9.34 3.03,12.73 2.02,3.4 4.77,5.96 8.24,7.7 3.48,1.74 7.4,2.61 11.76,2.61 3.56,0 6.77,-0.5 9.65,-1.51 2.87,-1.01 5.64,-2.36 8.3,-4.06l3.64 6.55c-2.91,1.94 -6.24,3.6 -10,4.97 -3.76,1.37 -8.02,2.06 -12.79,2.06z"/>
  <path id="_5" class="fil11" d="M1100.44 522.56l0 -58.94 8 0 0.85 7.76 0.24 0c1.53,-2.74 3.31,-4.97 5.33,-6.67 2.02,-1.7 4.73,-2.54 8.13,-2.54 2.91,0 5.29,0.85 7.16,2.54 1.86,1.7 3.19,4.25 4,7.64 1.7,-3.15 3.57,-5.64 5.64,-7.45 2.06,-1.82 4.79,-2.73 8.19,-2.73 4.12,0 7.34,1.55 9.64,4.67 2.3,3.11 3.46,7.62 3.46,13.52l0 42.2 -9.95 0 0 -41.48c0,-6.87 -2.1,-10.31 -6.3,-10.31 -2.02,0 -3.7,0.75 -5.03,2.24 -1.33,1.5 -2.81,3.78 -4.43,6.85l0 42.69 -9.21 0 0 -41.48c0,-3.39 -0.47,-5.96 -1.4,-7.7 -0.93,-1.73 -2.49,-2.61 -4.67,-2.61 -2.02,0 -3.78,0.75 -5.28,2.24 -1.49,1.5 -2.97,3.78 -4.43,6.85l0 42.69 -9.94 0z"/>
  <path id="_6" class="fil11" d="M1204.61 522.56l-0.12 -50.81 -27.29 -0.12 -0.12 -8.01 37.23 0.12 0.12 58.82 -9.82 0zm3.75 -71.31c-2.26,0 -4.16,-0.71 -5.7,-2.12 -1.53,-1.42 -2.3,-3.3 -2.3,-5.64 0,-2.34 0.77,-4.22 2.3,-5.64 1.54,-1.42 3.44,-2.12 5.7,-2.12 2.27,0 4.17,0.71 5.7,2.12 1.54,1.42 2.31,3.29 2.31,5.64 0,2.34 -0.77,4.23 -2.31,5.64 -1.53,1.41 -3.43,2.12 -5.7,2.12z"/>
  <path id="_7" class="fil11" d="M1268.75 524.02c-3.64,0 -6.99,-0.67 -10.06,-2 -3.07,-1.33 -5.49,-3.26 -7.27,-5.76 -1.78,-2.51 -2.67,-5.5 -2.67,-8.98 0,-6.63 3.31,-11.66 9.94,-15.1 6.63,-3.43 17.54,-5.75 32.75,-6.97 -0.08,-2.67 -0.63,-5.14 -1.64,-7.4 -1.01,-2.26 -2.65,-4.06 -4.92,-5.4 -2.26,-1.33 -5.29,-2 -9.1,-2 -2.5,0 -4.99,0.34 -7.46,1.03 -2.46,0.69 -4.81,1.57 -7.03,2.67 -2.22,1.09 -4.26,2.21 -6.12,3.33l-3.88 -6.79c1.94,-1.3 4.3,-2.61 7.09,-3.95 2.79,-1.33 5.8,-2.43 9.03,-3.27 3.24,-0.85 6.59,-1.27 10.06,-1.27 5.42,0 9.89,1.01 13.4,3.03 3.52,2.02 6.15,4.83 7.89,8.43 1.74,3.6 2.61,7.86 2.61,12.79l0 36.13 -8.13 0 -0.85 -8 -0.36 0c-3.23,2.58 -6.87,4.81 -10.92,6.67 -4.04,1.86 -8.16,2.79 -12.37,2.79zm2.67 -8.01c3.4,0 6.75,-0.76 10.06,-2.3 3.31,-1.53 6.63,-3.68 9.95,-6.43l0 -15.52c-8.41,0.73 -15.02,1.74 -19.83,3.03 -4.81,1.29 -8.21,2.93 -10.19,4.91 -1.98,1.98 -2.97,4.26 -2.97,6.85 0,2.18 0.6,3.98 1.81,5.4 1.22,1.41 2.81,2.44 4.79,3.09 1.98,0.65 4.1,0.97 6.37,0.97z"/>
  <path id="_8" class="fil11" d="M699.42 643.36c-4.93,0 -9.49,-0.93 -13.7,-2.79 -4.2,-1.86 -7.88,-4.54 -11.03,-8.06 -3.16,-3.52 -5.6,-7.84 -7.34,-12.97 -1.74,-5.14 -2.61,-10.94 -2.61,-17.41 0,-8.48 1.53,-15.82 4.61,-22.01 3.07,-6.19 7.27,-10.94 12.61,-14.25 5.33,-3.31 11.48,-4.97 18.43,-4.97 4.77,0 9.02,0.99 12.73,2.97 3.72,1.98 6.72,4.23 8.98,6.73l-5.7 6.43c-2.02,-2.26 -4.37,-4.04 -7.03,-5.33 -2.67,-1.29 -5.66,-1.94 -8.98,-1.94 -5.09,0 -9.51,1.31 -13.28,3.94 -3.76,2.63 -6.69,6.32 -8.79,11.1 -2.1,4.77 -3.16,10.47 -3.16,17.1 0,6.71 1.05,12.49 3.16,17.35 2.1,4.85 5.03,8.61 8.79,11.27 3.76,2.67 8.19,4 13.28,4 3.64,0 6.92,-0.77 9.82,-2.3 2.91,-1.54 5.62,-3.72 8.13,-6.55l5.7 6.19c-3.07,3.64 -6.63,6.47 -10.67,8.49 -4.04,2.02 -8.69,3.03 -13.95,3.03z"/>
  <path id="_9" class="fil11" d="M778.85 643.36c-6.22,0 -10.99,-1.8 -14.31,-5.4 -3.31,-3.6 -4.97,-8.88 -4.97,-15.83l0 -58.45 -20.13 0 0 -8.13 30.07 0 0 67.31c0,4.28 1.05,7.4 3.16,9.34 2.1,1.94 4.89,2.91 8.37,2.91 1.7,0 3.44,-0.22 5.21,-0.67 1.78,-0.44 3.76,-1.15 5.95,-2.12l2.54 7.51c-2.67,0.97 -5.17,1.8 -7.51,2.49 -2.34,0.69 -5.14,1.03 -8.37,1.03z"/>
  <path id="_10" class="fil11" d="M842.39 643.36c-5.91,0 -11.26,-1.22 -16.07,-3.64 -4.81,-2.42 -8.63,-5.96 -11.46,-10.61 -2.83,-4.65 -4.25,-10.24 -4.25,-16.8 0,-6.39 1.42,-11.89 4.25,-16.49 2.83,-4.61 6.52,-8.15 11.1,-10.61 4.56,-2.47 9.48,-3.7 14.73,-3.7 5.66,0 10.49,1.15 14.49,3.45 4,2.31 7.07,5.52 9.21,9.65 2.14,4.12 3.22,8.97 3.22,14.55 0,1.13 -0.04,2.23 -0.12,3.28 -0.08,1.05 -0.2,1.98 -0.36,2.78l-49.84 0 0 -7.75 43.9 0 -2.55 2.78c0,-6.95 -1.59,-12.17 -4.78,-15.64 -3.2,-3.48 -7.5,-5.22 -12.92,-5.22 -3.64,0 -7.01,0.89 -10.13,2.67 -3.11,1.78 -5.6,4.37 -7.45,7.76 -1.86,3.4 -2.79,7.56 -2.79,12.49 0,5.09 1.01,9.34 3.03,12.73 2.02,3.4 4.77,5.96 8.24,7.7 3.48,1.74 7.4,2.61 11.76,2.61 3.56,0 6.77,-0.5 9.65,-1.51 2.87,-1.01 5.64,-2.36 8.3,-4.06l3.64 6.55c-2.91,1.94 -6.24,3.6 -10,4.97 -3.76,1.37 -8.02,2.06 -12.79,2.06z"/>
  <path id="_11" class="fil11" d="M882.17 641.9l0 -58.94 8 0 0.85 7.76 0.24 0c1.53,-2.74 3.31,-4.97 5.33,-6.67 2.02,-1.7 4.73,-2.54 8.13,-2.54 2.91,0 5.29,0.85 7.16,2.54 1.86,1.7 3.19,4.25 4,7.64 1.7,-3.15 3.57,-5.64 5.64,-7.45 2.06,-1.82 4.79,-2.73 8.19,-2.73 4.12,0 7.34,1.55 9.64,4.67 2.3,3.11 3.46,7.62 3.46,13.52l0 42.2 -9.95 0 0 -41.48c0,-6.87 -2.1,-10.31 -6.3,-10.31 -2.02,0 -3.7,0.75 -5.03,2.24 -1.33,1.5 -2.81,3.78 -4.43,6.85l0 42.69 -9.21 0 0 -41.48c0,-3.39 -0.47,-5.96 -1.4,-7.7 -0.93,-1.73 -2.49,-2.61 -4.67,-2.61 -2.02,0 -3.78,0.75 -5.28,2.24 -1.49,1.5 -2.97,3.78 -4.43,6.85l0 42.69 -9.94 0z"/>
  <path id="_12" class="fil11" d="M987.91 643.36c-5.91,0 -11.26,-1.22 -16.07,-3.64 -4.81,-2.42 -8.63,-5.96 -11.46,-10.61 -2.83,-4.65 -4.25,-10.24 -4.25,-16.8 0,-6.39 1.42,-11.89 4.25,-16.49 2.83,-4.61 6.52,-8.15 11.1,-10.61 4.56,-2.47 9.48,-3.7 14.73,-3.7 5.66,0 10.49,1.15 14.49,3.45 4,2.31 7.07,5.52 9.21,9.65 2.14,4.12 3.22,8.97 3.22,14.55 0,1.13 -0.04,2.23 -0.12,3.28 -0.08,1.05 -0.2,1.98 -0.36,2.78l-49.84 0 0 -7.75 43.9 0 -2.55 2.78c0,-6.95 -1.59,-12.17 -4.78,-15.64 -3.2,-3.48 -7.5,-5.22 -12.92,-5.22 -3.64,0 -7.01,0.89 -10.13,2.67 -3.11,1.78 -5.6,4.37 -7.45,7.76 -1.86,3.4 -2.79,7.56 -2.79,12.49 0,5.09 1.01,9.34 3.03,12.73 2.02,3.4 4.77,5.96 8.24,7.7 3.48,1.74 7.4,2.61 11.76,2.61 3.56,0 6.77,-0.5 9.65,-1.51 2.87,-1.01 5.64,-2.36 8.3,-4.06l3.64 6.55c-2.91,1.94 -6.24,3.6 -10,4.97 -3.76,1.37 -8.02,2.06 -12.79,2.06z"/>
  <path id="_13" class="fil11" d="M1031.92 641.9l0 -58.94 8.25 0 0.85 10.06 0.49 0c3.07,-3.31 6.39,-6.06 9.94,-8.24 3.56,-2.18 7.64,-3.27 12.25,-3.27 6.95,0 12.09,2.02 15.4,6.06 3.31,4.04 4.97,9.94 4.97,17.7l0 36.62 -9.94 0 0 -35.29c0,-5.58 -1.05,-9.72 -3.16,-12.43 -2.1,-2.71 -5.58,-4.06 -10.43,-4.06 -3.47,0 -6.59,0.89 -9.34,2.67 -2.75,1.78 -5.86,4.45 -9.34,8l0 41.11 -9.95 0z"/>
  <path id="_14" class="fil11" d="M1141.19 643.36c-5.74,0 -10.27,-1.03 -13.58,-3.09 -3.31,-2.06 -5.68,-4.92 -7.09,-8.55 -1.41,-3.64 -2.12,-7.88 -2.12,-12.73l0 -27.89 -16.62 0 0 -7.51 16.98 -0.61 1.33 -18.91 8.24 0 0 18.91 28.98 0 0 8.13 -28.98 0 0 28.02c0,3.48 0.45,6.43 1.33,8.85 0.89,2.42 2.43,4.24 4.61,5.45 2.19,1.22 5.18,1.82 8.98,1.82 2.83,0 5.38,-0.24 7.64,-0.73 2.26,-0.49 4.45,-1.13 6.54,-1.94l2.19 7.27c-2.67,0.97 -5.48,1.8 -8.43,2.49 -2.95,0.69 -6.28,1.03 -10,1.03z"/>
  <path id="_15" class="fil11" d="M1204.61 641.9l-0.12 -50.81 -27.29 -0.12 -0.12 -8.01 37.23 0.12 0.12 58.82 -9.82 0zm3.75 -71.31c-2.26,0 -4.16,-0.71 -5.7,-2.12 -1.53,-1.42 -2.3,-3.3 -2.3,-5.64 0,-2.34 0.77,-4.22 2.3,-5.64 1.54,-1.42 3.44,-2.12 5.7,-2.12 2.27,0 4.17,0.71 5.7,2.12 1.54,1.42 2.31,3.29 2.31,5.64 0,2.34 -0.77,4.23 -2.31,5.64 -1.53,1.41 -3.43,2.12 -5.7,2.12z"/>
  <path id="_16" class="fil11" d="M1250.2 641.9l0 -58.94 8.25 0 0.85 10.06 0.49 0c3.07,-3.31 6.39,-6.06 9.94,-8.24 3.56,-2.18 7.64,-3.27 12.25,-3.27 6.95,0 12.09,2.02 15.4,6.06 3.31,4.04 4.97,9.94 4.97,17.7l0 36.62 -9.94 0 0 -35.29c0,-5.58 -1.05,-9.72 -3.16,-12.43 -2.1,-2.71 -5.58,-4.06 -10.43,-4.06 -3.47,0 -6.59,0.89 -9.34,2.67 -2.75,1.78 -5.86,4.45 -9.34,8l0 41.11 -9.95 0z"/>
  <path id="_17" class="fil11" d="M1341.51 643.36c-3.64,0 -6.99,-0.67 -10.06,-2 -3.07,-1.33 -5.49,-3.26 -7.27,-5.76 -1.78,-2.51 -2.67,-5.5 -2.67,-8.98 0,-6.63 3.31,-11.66 9.94,-15.1 6.63,-3.43 17.54,-5.75 32.75,-6.97 -0.08,-2.67 -0.63,-5.14 -1.64,-7.4 -1.01,-2.26 -2.65,-4.06 -4.92,-5.4 -2.26,-1.33 -5.29,-2 -9.1,-2 -2.5,0 -4.99,0.34 -7.46,1.03 -2.46,0.69 -4.81,1.57 -7.03,2.67 -2.22,1.09 -4.26,2.21 -6.12,3.33l-3.88 -6.79c1.94,-1.3 4.3,-2.61 7.09,-3.95 2.79,-1.33 5.8,-2.43 9.03,-3.27 3.24,-0.85 6.59,-1.27 10.06,-1.27 5.42,0 9.89,1.01 13.4,3.03 3.52,2.02 6.15,4.83 7.89,8.43 1.74,3.6 2.61,7.86 2.61,12.79l0 36.13 -8.13 0 -0.85 -8 -0.36 0c-3.23,2.58 -6.87,4.81 -10.92,6.67 -4.04,1.86 -8.16,2.79 -12.37,2.79zm2.67 -8.01c3.4,0 6.75,-0.76 10.06,-2.3 3.31,-1.53 6.63,-3.68 9.95,-6.43l0 -15.52c-8.41,0.73 -15.02,1.74 -19.83,3.03 -4.81,1.29 -8.21,2.93 -10.19,4.91 -1.98,1.98 -2.97,4.26 -2.97,6.85 0,2.18 0.6,3.98 1.81,5.4 1.22,1.41 2.81,2.44 4.79,3.09 1.98,0.65 4.1,0.97 6.37,0.97z"/>
  <polygon class="fil11" points="1502.56,1676.4 1358.03,1614.4 1376.61,1778.31 1426.78,1737.7 1505.45,1834.93 1533.95,1811.86 1455.28,1714.65 "/>
  <path class="fil11" d="M1876.72 267.91c-16.48,0 -29.89,13.4 -29.89,29.86 0,16.48 13.41,29.87 29.89,29.87 16.46,0 29.86,-13.39 29.86,-29.87 0,-16.47 -13.41,-29.86 -29.86,-29.86zm0 67.19c-20.58,0 -37.33,-16.74 -37.33,-37.32 0,-20.57 16.75,-37.32 37.33,-37.32 20.57,0 37.31,16.75 37.31,37.32 0,20.58 -16.74,37.32 -37.31,37.32z"/>
  <path class="fil11" d="M1914.11 352.22c-1.11,0 -2.21,-0.5 -2.94,-1.44l-17.75 -22.82c-1.26,-1.62 -0.97,-3.97 0.65,-5.22 1.61,-1.25 3.97,-0.98 5.23,0.65l17.74 22.83c1.26,1.62 0.97,3.96 -0.65,5.22 -0.67,0.52 -1.48,0.78 -2.28,0.78z"/>
 </g>
</svg>
