<?xml version="1.0" encoding="UTF-8"?>
<!DOCTYPE svg PUBLIC "-//W3C//DTD SVG 1.1//EN" "http://www.w3.org/Graphics/SVG/1.1/DTD/svg11.dtd">
<!-- Creator: CorelDRAW 2021 (64-Bit) -->
<svg xmlns="http://www.w3.org/2000/svg" xml:space="preserve" width="66.3666mm" height="49.7748mm" version="1.1" style="shape-rendering:geometricPrecision; text-rendering:geometricPrecision; image-rendering:optimizeQuality; fill-rule:evenodd; clip-rule:evenodd"
viewBox="0 0 6605.27 4953.94"
 xmlns:xlink="http://www.w3.org/1999/xlink"
 xmlns:xodm="http://www.corel.com/coreldraw/odm/2003">
 <defs>
  <style type="text/css">
   <![CDATA[
    .fil0 {fill:#B3B3B3;fill-rule:nonzero}
   ]]>
  </style>
 </defs>
 <g id="Layer_x0020_1">
  <metadata id="CorelCorpID_0Corel-Layer"/>
  <path id="envelope-solid.svg" class="fil0" d="M619.25 0c-341.88,0 -619.25,277.37 -619.25,619.24 0,194.8 91.6,378 247.7,495.4l2807.24 2105.42c147.07,109.66 348.31,109.66 495.39,0l2807.24 -2105.42c156.1,-117.39 247.7,-300.59 247.7,-495.4 0,-341.87 -277.37,-619.24 -619.25,-619.24l-5366.77 0zm-619.25 1444.89l0 2683.39c0,455.41 370.26,825.66 825.67,825.66l4953.94 0c455.41,0 825.67,-370.25 825.67,-825.66l0 -2683.39 -2807.24 2105.43c-294.14,220.6 -696.65,220.6 -990.79,0l-2807.24 -2105.43z"/>
 </g>
</svg>
