<?xml version="1.0" encoding="UTF-8"?>
<!DOCTYPE svg PUBLIC "-//W3C//DTD SVG 1.1//EN" "http://www.w3.org/Graphics/SVG/1.1/DTD/svg11.dtd">
<!-- Creator: CorelDRAW 2021 (64-Bit) -->
<svg xmlns="http://www.w3.org/2000/svg" xml:space="preserve" width="91.44mm" height="91.44mm" version="1.1" style="shape-rendering:geometricPrecision; text-rendering:geometricPrecision; image-rendering:optimizeQuality; fill-rule:evenodd; clip-rule:evenodd"
viewBox="0 0 9118.67 9118.67"
 xmlns:xlink="http://www.w3.org/1999/xlink"
 xmlns:xodm="http://www.corel.com/coreldraw/odm/2003">
 <defs>
  <style type="text/css">
   <![CDATA[
    .fil0 {fill:none}
    .fil1 {fill:white;fill-rule:nonzero}
   ]]>
  </style>
 </defs>
 <g id="Layer_x0020_1">
  <metadata id="CorelCorpID_0Corel-Layer"/>
  <rect class="fil0" width="9118.67" height="9118.67" rx="31.63" ry="31.75"/>
  <path class="fil1" d="M4556.87 8430.53c-227.1,0 -415.89,-75.26 -566.41,-225.77 -150.51,-150.51 -225.77,-344.59 -225.77,-582.24 0,-232.36 75.26,-422.5 225.77,-570.37 150.51,-147.87 339.31,-221.8 566.41,-221.8 227.09,0 415.88,73.93 566.4,221.8 150.51,147.87 225.76,338 225.76,570.37 0,237.65 -75.25,431.73 -225.76,582.24 -150.51,150.51 -339.31,225.77 -566.4,225.77z"/>
  <path class="fil1" d="M3550.72 6032.79c-58.61,-334.83 -37.68,-627.82 62.78,-878.94 100.45,-251.13 240.66,-472.96 420.64,-665.48 179.97,-192.54 368.32,-370.41 565.03,-533.65 196.72,-163.24 359.94,-324.38 489.69,-483.42 129.75,-159.06 194.63,-330.66 194.63,-514.82 0,-259.49 -87.9,-456.21 -263.68,-590.15 -175.79,-133.94 -397.63,-200.9 -665.49,-200.9 -259.5,0 -489.7,52.32 -690.59,156.96 -200.91,104.63 -397.63,244.85 -590.16,420.64l-1029.62 -941.73c301.35,-334.83 659.21,-606.88 1073.57,-816.17 414.37,-209.27 868.49,-313.9 1362.37,-313.9 485.51,0 920.8,75.33 1305.86,226.01 385.05,150.68 692.69,376.69 922.89,678.05 230.2,301.34 345.31,682.22 345.31,1142.63 0,334.84 -66.97,617.36 -200.91,847.56 -133.93,230.2 -301.34,437.38 -502.25,621.53 -200.89,184.16 -397.62,359.95 -590.14,527.38 -192.54,167.4 -349.5,355.76 -470.86,565.03 -121.37,209.28 -165.33,460.4 -131.84,753.38l-1607.21 0z"/>
 </g>
</svg>
