<?xml version="1.0" encoding="UTF-8"?>
<!DOCTYPE svg PUBLIC "-//W3C//DTD SVG 1.1//EN" "http://www.w3.org/Graphics/SVG/1.1/DTD/svg11.dtd">
<!-- Creator: CorelDRAW 2021 (64-Bit) -->
<svg xmlns="http://www.w3.org/2000/svg" xml:space="preserve" width="39.3022mm" height="43.4222mm" version="1.1" style="shape-rendering:geometricPrecision; text-rendering:geometricPrecision; image-rendering:optimizeQuality; fill-rule:evenodd; clip-rule:evenodd"
viewBox="0 0 2337.22 2582.23"
 xmlns:xlink="http://www.w3.org/1999/xlink"
 xmlns:xodm="http://www.corel.com/coreldraw/odm/2003">
 <defs>
  <style type="text/css">
   <![CDATA[
    .fil0 {fill:#B3B3B3;fill-rule:nonzero}
   ]]>
  </style>
 </defs>
 <g id="Layer_x0020_1">
  <metadata id="CorelCorpID_0Corel-Layer"/>
  <path id="user-solid.svg" class="fil0" d="M930.19 1497.09c-143.21,-4.79 -802.61,-34.33 -930.19,930.2 0,85.56 69.39,154.94 154.94,154.94l2027.33 0c85.56,0 154.94,-69.39 154.94,-154.94 0,-513.87 -416.32,-930.2 -930.19,-930.2l-476.84 0 0 0z"/>
  <path id="user-solid.svg_0" class="fil0" d="M1170.43 1335.55c368.74,0 667.78,-299.03 667.78,-667.78 0,-368.74 -299.03,-667.78 -667.78,-667.78 -368.74,0 -667.78,299.03 -667.78,667.78 0,368.74 299.04,667.78 667.78,667.78z"/>
 </g>
</svg>
